<svg width="305" height="45" viewBox="0 0 305 45" fill="none" xmlns="http://www.w3.org/2000/svg">
<path d="M19.6965 32.6797C19.6965 26.8528 15.9506 24.2961 12.1453 21.9178C8.10217 19.48 3.99957 17.2801 3.99957 11.8694C3.99957 8.77761 6.61572 6.16145 9.58862 6.16145C12.2048 6.16145 14.3453 7.94519 15.8317 13.1775C16.1885 14.4261 16.0101 15.3774 16.8425 15.3774C17.4371 15.3774 17.4371 15.2585 17.4371 12.1667V8.3614C17.3776 6.99386 17.3182 6.75603 17.0803 6.5182C16.3074 5.74525 13.0372 4.73446 10.54 4.73446C4.9509 4.73446 0.432092 8.71815 0.432092 13.5937C0.432092 18.7071 3.8212 21.3827 7.44814 23.7016C8.28055 24.2367 9.17242 24.8313 10.0048 25.3664C13.3345 27.5069 16.129 30.0041 16.129 34.4635C16.129 38.9228 13.3939 42.4308 9.46971 42.4308C5.96169 42.4308 3.34553 39.8147 1.85908 32.5013C1.74017 31.9068 1.74017 31.6095 1.02667 31.6095C0.669924 31.6095 0.49155 31.6689 0.372634 32.2635C0.134802 33.5716 0.19426 36.0688 0.19426 37.4958C0.253718 41.3606 0.551008 41.8957 1.2645 42.3714C2.51312 43.1443 4.89144 43.8578 8.22109 43.8578C14.9398 43.8578 19.6965 39.4579 19.6965 32.7392V32.6797ZM35.0766 28.3987C36.5036 28.3987 36.5036 28.2204 36.5036 24.7123C36.5036 18.7665 33.2929 15.318 29.0119 15.318C23.8985 15.318 18.904 20.0746 18.904 30.0636C18.904 38.1499 22.7093 43.62 29.2497 43.62C32.1037 43.62 34.8388 41.8957 35.9685 39.2201C36.3252 38.3877 36.6225 37.3769 36.6225 36.4256C36.6225 35.831 36.4441 35.7121 36.2063 35.7121C35.7901 35.7121 35.6712 36.5445 35.1955 37.7336C34.3631 39.8741 32.6388 41.1228 29.8443 41.1228C25.6822 41.1228 22.8282 36.6039 22.8282 29.5284C22.8282 28.7555 23.185 28.3987 24.1958 28.3987H35.0766ZM22.9472 25.4258C22.9472 20.5503 25.4444 16.745 28.6551 16.745C31.2713 16.745 33.1739 19.1233 33.1739 23.2259C33.1739 24.8313 32.9361 25.4853 32.401 25.9015C32.0442 26.1988 30.7362 26.4961 28.6551 26.615C27.7633 26.6745 26.7525 26.7339 25.5633 26.7339C23.0661 26.7339 22.9472 26.4961 22.9472 25.4853V25.4258ZM51.9037 28.3987C53.3307 28.3987 53.3307 28.2204 53.3307 24.7123C53.3307 18.7665 50.1199 15.318 45.839 15.318C40.7256 15.318 35.7311 20.0746 35.7311 30.0636C35.7311 38.1499 39.5364 43.62 46.0768 43.62C48.9308 43.62 51.6658 41.8957 52.7955 39.2201C53.1523 38.3877 53.4496 37.3769 53.4496 36.4256C53.4496 35.831 53.2712 35.7121 53.0334 35.7121C52.6172 35.7121 52.4982 36.5445 52.0226 37.7336C51.1902 39.8741 49.4659 41.1228 46.6714 41.1228C42.5093 41.1228 39.6553 36.6039 39.6553 29.5284C39.6553 28.7555 40.0121 28.3987 41.0229 28.3987H51.9037ZM39.7742 25.4258C39.7742 20.5503 42.2715 16.745 45.4822 16.745C48.0984 16.745 50.001 19.1233 50.001 23.2259C50.001 24.8313 49.7632 25.4853 49.2281 25.9015C48.8713 26.1988 47.5632 26.4961 45.4822 26.615C44.5903 26.6745 43.5795 26.7339 42.3904 26.7339C39.8932 26.7339 39.7742 26.4961 39.7742 25.4853V25.4258ZM71.228 1.64265C71.228 0.92915 71.1091 0.810235 70.9307 0.810235C70.6334 0.810235 70.455 0.988607 69.6821 1.34535C68.9686 1.7021 67.7794 2.23723 65.52 3.06964C64.866 3.30747 64.6876 3.42639 64.6876 3.84259C64.6876 4.2588 64.9849 4.31825 65.9362 4.49663C67.3632 4.73446 67.6605 5.09121 67.6605 5.98308V16.745C67.6605 16.9234 67.601 17.0423 67.4227 17.0423C67.2443 17.0423 66.8876 16.6855 66.293 16.3288C65.5795 15.8531 64.5092 15.318 62.8444 15.318C56.6608 15.318 52.796 22.334 52.796 29.7663C52.796 38.0309 55.65 43.62 61.8336 43.62C63.9741 43.62 65.2227 42.847 66.0551 42.1335C66.947 41.3606 67.3038 40.6471 67.601 40.6471C67.8983 40.6471 67.9578 41.0633 68.2551 42.7281C68.374 43.3822 68.6713 43.62 69.147 43.62C69.7415 43.62 70.9902 43.0849 72.1793 42.5497C72.9523 42.193 73.4874 41.9552 73.8441 41.7173C74.4982 41.2417 74.6171 40.766 74.6171 39.4579C74.6171 38.5066 74.4982 38.2093 74.082 38.2093C73.4279 38.2093 73.1901 41.0038 71.7036 41.0038C71.4064 41.0038 71.228 40.5876 71.228 38.7444V1.64265ZM56.7202 28.8744C56.7202 19.7179 60.2877 16.745 62.8444 16.745C64.2714 16.745 65.4606 17.3396 66.3524 18.4098C67.1848 19.48 67.6605 20.907 67.6605 22.6313V37.3174C67.6605 38.7444 67.0065 39.7552 66.1146 40.4093C65.2227 41.0633 64.0336 41.3606 62.9039 41.3606C58.7418 41.3606 56.7202 37.4364 56.7202 28.9339V28.8744ZM105.06 32.6797C105.06 31.0744 104.703 31.0149 104.168 31.0149C103.574 31.0149 103.574 31.8473 102.979 34.8797C102.147 38.9823 100.303 42.4308 96.3792 42.4308C91.7414 42.4308 87.1037 37.7931 87.1037 23.6421C87.1037 10.6803 91.9793 6.16145 95.8441 6.16145C98.817 6.16145 100.957 8.48031 102.384 12.8802C103.276 15.6153 103.395 15.7936 103.93 15.7936C104.465 15.7936 104.465 15.6747 104.465 12.9991C104.465 10.6208 104.465 9.13435 104.406 8.24248C104.347 6.93441 104.168 6.75603 103.93 6.5182C103.276 5.98308 100.244 4.73446 96.6765 4.73446C88.0551 4.73446 82.3471 12.5829 82.3471 24.3556C82.3471 36.6039 88.5307 43.8578 96.7359 43.8578C99.471 43.8578 103.038 43.0254 104.228 42.0146C104.822 41.5984 105.001 41.3011 105.001 40.1714L105.06 32.6797ZM108.826 39.2201C108.826 40.8255 108.469 41.42 106.329 41.7173C105.853 41.7768 105.377 42.0741 105.377 42.4308C105.377 42.966 105.794 43.1443 106.091 43.1443C106.685 43.1443 107.399 42.9065 110.669 42.9065C114.355 42.9065 115.069 43.1443 115.545 43.1443C115.961 43.1443 116.199 42.847 116.199 42.4308C116.199 41.9552 115.723 41.8957 115.069 41.7173C113.107 41.1822 112.393 41.1822 112.393 39.6958V1.64265C112.393 0.92915 112.274 0.810235 112.096 0.810235C111.799 0.810235 111.62 0.92915 110.847 1.34535C110.193 1.7021 108.945 2.23723 106.685 3.06964C106.031 3.30747 105.853 3.42639 105.853 3.84259C105.853 4.2588 106.15 4.31825 107.102 4.49663C108.529 4.73446 108.826 5.09121 108.826 5.98308V39.2201ZM121.888 18.1125C121.888 16.5071 121.888 15.7936 120.936 15.7936C120.342 15.7936 119.747 15.8531 119.153 15.8531C118.201 15.8531 117.309 15.7936 116.358 15.7936C115.466 15.7936 115.109 16.2099 115.109 16.6261C115.109 17.1612 115.466 17.3396 116.655 17.4585C117.963 17.5774 118.32 18.0531 118.32 19.2422V36.8418C118.32 39.2796 119.212 40.8255 120.342 41.8363C121.59 42.9065 123.374 43.2632 125.098 43.2632C128.666 43.2632 130.806 41.0633 131.995 40.0525C132.352 39.7552 132.59 39.5768 132.828 39.5768C133.066 39.5768 133.244 39.6363 133.244 40.3498V43.0254C133.244 43.3227 133.304 43.62 133.482 43.62C133.72 43.62 133.898 43.5605 134.195 43.4416C134.909 43.1443 136.395 42.4308 138.357 41.6579C139.13 41.3606 139.487 41.0633 139.487 40.766C139.487 40.2903 139.19 40.1714 137.882 40.0525C136.752 39.9336 136.514 39.3985 136.514 37.258V19.4206V17.1612C136.514 15.9126 136.217 15.7936 135.622 15.7936C134.671 15.7936 133.779 15.8531 132.828 15.8531C131.995 15.8531 131.163 15.7936 130.331 15.7936C129.617 15.7936 129.32 16.2099 129.32 16.5666C129.32 17.399 129.736 17.2801 131.282 17.4585C132.768 17.6368 132.947 18.172 132.947 19.5395V35.6526C132.947 36.8418 132.412 37.9715 131.639 38.8634C130.39 40.1714 128.547 41.0038 126.763 41.0038C123.909 41.0038 121.888 39.2201 121.888 36.0094V18.1125ZM144.204 1.34535C144.204 0.92915 144.085 0.810235 143.907 0.810235C143.61 0.810235 143.491 0.92915 142.837 1.2859C142.123 1.64265 140.934 2.17777 138.496 3.06964C137.842 3.30747 137.664 3.42639 137.664 3.84259C137.664 4.2588 137.961 4.31825 138.913 4.49663C140.34 4.73446 140.637 5.09121 140.637 6.45874V35.058C140.637 38.7444 140.518 40.6471 140.458 41.6579C140.458 42.0741 140.221 43.0254 140.221 43.3822C140.221 43.9173 140.458 44.2146 140.875 44.2146C141.529 44.2146 141.707 43.62 142.004 43.0254C142.242 42.6092 142.539 42.193 143.253 42.193C143.729 42.193 144.204 42.3714 144.68 42.6092C145.512 43.0254 146.404 43.62 147.891 43.62C154.609 43.62 159.009 37.6742 159.009 28.3987C159.009 21.7394 155.561 15.318 150.507 15.318C147.95 15.318 146.345 16.9234 145.215 17.3396C145.037 17.399 144.858 17.4585 144.68 17.4585C144.383 17.4585 144.204 17.2206 144.204 16.4477V1.34535ZM155.085 30.0636C155.085 38.3282 152.41 42.193 148.129 42.193C145.929 42.193 144.204 40.6471 144.204 37.4364V21.3232C144.204 20.6692 144.442 19.9557 144.799 19.3611C145.453 18.3503 146.583 17.5774 148.069 17.5774C151.993 17.5774 155.085 20.5503 155.085 30.0041V30.0636ZM175.539 6.16145C175.539 5.68579 175.242 5.44796 174.766 5.44796C173.874 5.44796 172.507 5.68579 170.128 5.68579C168.226 5.68579 167.393 5.44796 166.383 5.44796C165.847 5.44796 165.61 5.68579 165.61 6.102C165.61 6.39929 165.847 6.81549 167.037 7.05332C167.691 7.17224 167.988 7.82628 168.464 9.4911C171.437 19.8962 176.253 35.4742 177.323 41.1228C177.68 42.966 177.977 43.8578 178.512 43.8578C179.166 43.8578 179.523 42.5497 179.82 41.3011C182.198 31.2527 184.696 21.026 187.49 10.9776C188.382 7.76682 188.501 7.35061 189.096 7.11278C189.987 6.75603 190.701 6.63712 190.701 6.102C190.701 5.56687 190.404 5.44796 189.75 5.44796C188.977 5.44796 188.085 5.68579 187.015 5.68579C185.35 5.68579 184.279 5.44796 183.863 5.44796C183.328 5.44796 182.912 5.74525 182.912 6.28037C182.912 6.81549 183.388 6.93441 184.696 7.05332C185.766 7.17224 186.123 7.70736 186.123 8.65869C186.123 9.96677 185.766 11.5127 185.469 12.7613L182.08 26.3177C180.236 33.75 180.117 34.4635 179.761 34.4635C179.463 34.4635 179.285 34.1662 178.215 30.4798L172.685 11.1559C172.507 10.5613 172.091 9.19381 172.091 8.59923C172.091 7.94519 172.507 7.29115 173.22 7.11278C175.182 6.75603 175.539 6.75603 175.539 6.22091V6.16145ZM201.605 28.3987C203.032 28.3987 203.032 28.2204 203.032 24.7123C203.032 18.7665 199.822 15.318 195.541 15.318C190.427 15.318 185.433 20.0746 185.433 30.0636C185.433 38.1499 189.238 43.62 195.779 43.62C198.633 43.62 201.368 41.8957 202.497 39.2201C202.854 38.3877 203.151 37.3769 203.151 36.4256C203.151 35.831 202.973 35.7121 202.735 35.7121C202.319 35.7121 202.2 36.5445 201.724 37.7336C200.892 39.8741 199.168 41.1228 196.373 41.1228C192.211 41.1228 189.357 36.6039 189.357 29.5284C189.357 28.7555 189.714 28.3987 190.725 28.3987H201.605ZM189.476 25.4258C189.476 20.5503 191.973 16.745 195.184 16.745C197.8 16.745 199.703 19.1233 199.703 23.2259C199.703 24.8313 199.465 25.4853 198.93 25.9015C198.573 26.1988 197.265 26.4961 195.184 26.615C194.292 26.6745 193.281 26.7339 192.092 26.7339C189.595 26.7339 189.476 26.4961 189.476 25.4853V25.4258ZM205.649 38.6255C205.649 40.9444 205.233 41.4795 203.271 41.7173C202.736 41.7768 202.438 42.1335 202.438 42.4308C202.438 42.9065 202.736 43.1443 203.509 43.1443C204.044 43.1443 204.519 42.9065 207.254 42.9065C211.238 42.9065 211.892 43.1443 212.249 43.1443C212.725 43.1443 213.081 42.966 213.081 42.5497C213.081 41.9552 212.784 42.0146 210.881 41.7173C209.454 41.4795 209.217 41.0038 209.217 39.6363V23.2854C209.217 21.8584 209.989 20.5503 211.119 19.5395C212.249 18.5287 213.854 17.9341 215.4 17.9341C216.946 17.9341 218.195 18.4098 219.087 19.4206C219.859 20.253 220.276 21.4422 220.276 22.9286V39.5768C220.276 41.1228 219.8 41.4795 218.195 41.7173C217.481 41.8363 217.065 42.1335 217.065 42.4903C217.065 42.966 217.303 43.1443 217.957 43.1443C218.611 43.1443 219.027 42.9065 222.059 42.9065C225.389 42.9065 226.222 43.1443 226.459 43.1443C226.876 43.1443 227.292 42.966 227.292 42.5497C227.292 42.0146 226.876 41.8363 225.508 41.7173C224.319 41.5984 223.843 40.8849 223.843 38.9228V22.4529C223.784 20.1935 222.951 18.5287 221.822 17.4585C220.514 16.2099 218.789 15.6747 217.065 15.6747C214.984 15.6747 213.26 16.6855 211.952 17.6368C210.644 18.5882 209.752 19.48 209.217 19.48C209.038 19.48 208.979 19.4206 208.919 18.4693V16.0315C208.919 15.6153 208.741 15.318 208.503 15.318C208.325 15.318 208.087 15.5558 207.671 15.9126C206.957 16.5071 205.768 17.399 203.806 18.2909C203.033 18.6476 202.676 18.8855 202.676 19.1828C202.676 19.599 202.914 19.6584 203.865 19.7179C205.411 19.8368 205.649 19.9557 205.649 21.6205V38.6255ZM232.485 19.1233C232.485 18.2314 232.663 18.0531 233.258 18.0531H235.933C237.182 18.0531 237.538 17.6963 237.538 16.9234C237.538 16.2099 237.122 16.0315 236.052 16.0315H233.674C232.782 16.0315 232.485 15.6747 232.485 14.7234V9.43164C232.485 8.12357 232.306 7.94519 231.949 7.94519C231.533 7.94519 231.533 8.24248 230.939 9.37219C229.274 12.5235 227.966 14.2477 227.133 15.318C226.42 16.1504 226.063 16.5666 226.063 16.8639C226.063 17.5774 226.479 17.5774 227.014 17.5774C227.49 17.5774 227.966 17.5774 228.323 17.6963C228.679 17.8152 228.917 18.0531 228.917 18.5287V38.5066C228.917 40.3498 229.333 41.6579 230.106 42.4903C230.879 43.2632 232.009 43.62 233.436 43.62C237.776 43.62 238.43 38.6255 238.43 38.1499C238.43 37.7931 238.252 37.6742 237.895 37.6742C237.42 37.6742 237.063 38.5661 236.587 39.3985C236.112 40.2309 235.398 41.1228 234.268 41.1228C233.198 41.1228 232.485 40.766 232.485 38.7444V19.1233ZM242.871 18.1125C242.871 16.5071 242.871 15.7936 241.919 15.7936C241.325 15.7936 240.73 15.8531 240.136 15.8531C239.184 15.8531 238.292 15.7936 237.341 15.7936C236.449 15.7936 236.092 16.2099 236.092 16.6261C236.092 17.1612 236.449 17.3396 237.638 17.4585C238.946 17.5774 239.303 18.0531 239.303 19.2422V36.8418C239.303 39.2796 240.195 40.8255 241.325 41.8363C242.573 42.9065 244.357 43.2632 246.081 43.2632C249.649 43.2632 251.789 41.0633 252.979 40.0525C253.335 39.7552 253.573 39.5768 253.811 39.5768C254.049 39.5768 254.227 39.6363 254.227 40.3498V43.0254C254.227 43.3227 254.287 43.62 254.465 43.62C254.703 43.62 254.881 43.5605 255.178 43.4416C255.892 43.1443 257.378 42.4308 259.341 41.6579C260.113 41.3606 260.47 41.0633 260.47 40.766C260.47 40.2903 260.173 40.1714 258.865 40.0525C257.735 39.9336 257.497 39.3985 257.497 37.258V19.4206V17.1612C257.497 15.9126 257.2 15.7936 256.605 15.7936C255.654 15.7936 254.762 15.8531 253.811 15.8531C252.979 15.8531 252.146 15.7936 251.314 15.7936C250.6 15.7936 250.303 16.2099 250.303 16.5666C250.303 17.399 250.719 17.2801 252.265 17.4585C253.751 17.6368 253.93 18.172 253.93 19.5395V35.6526C253.93 36.8418 253.395 37.9715 252.622 38.8634C251.373 40.1714 249.53 41.0038 247.746 41.0038C244.892 41.0038 242.871 39.2201 242.871 36.0094V18.1125ZM263.285 38.5066C263.285 41.2417 262.987 41.4795 261.323 41.7173C260.55 41.8363 260.074 41.9552 260.074 42.5497C260.074 42.966 260.49 43.1443 261.204 43.1443C261.62 43.1443 262.274 42.9065 265.009 42.9065C268.576 42.9065 269.112 43.1443 269.587 43.1443C270.658 43.1443 270.955 43.0254 270.955 42.4903C270.955 42.0741 270.301 41.9552 268.993 41.7173C266.971 41.3606 266.852 40.6471 266.852 37.912V25.5448C266.852 24.534 267.149 22.9286 267.744 21.2638C268.339 19.599 269.231 18.172 270.479 18.172C271.133 18.172 271.133 19.1828 271.133 20.1341C271.133 21.4422 271.609 22.5124 273.214 22.5124C274.76 22.5124 275.414 21.1449 275.414 19.2422C275.414 16.8044 274.284 15.318 272.322 15.318C270.301 15.318 269.171 16.6261 268.339 17.8747C267.506 19.1233 267.149 20.4314 266.674 20.4314C266.436 20.4314 266.436 19.6584 266.436 18.7665C266.436 17.6963 266.436 16.8044 266.377 16.2099C266.317 15.6153 266.139 15.318 265.901 15.318C265.425 15.318 265.187 15.7342 264.355 16.6261C263.225 17.8152 262.096 18.2314 261.323 18.4693C260.728 18.6476 260.371 18.826 260.371 19.3611C260.371 19.7179 260.55 19.8368 260.966 19.8368C262.69 19.8368 263.285 20.253 263.285 22.3935V38.5066ZM289.457 28.3987C290.884 28.3987 290.884 28.2204 290.884 24.7123C290.884 18.7665 287.673 15.318 283.392 15.318C278.279 15.318 273.284 20.0746 273.284 30.0636C273.284 38.1499 277.09 43.62 283.63 43.62C286.484 43.62 289.219 41.8957 290.349 39.2201C290.706 38.3877 291.003 37.3769 291.003 36.4256C291.003 35.831 290.824 35.7121 290.587 35.7121C290.17 35.7121 290.052 36.5445 289.576 37.7336C288.743 39.8741 287.019 41.1228 284.225 41.1228C280.063 41.1228 277.209 36.6039 277.209 29.5284C277.209 28.7555 277.565 28.3987 278.576 28.3987H289.457ZM277.328 25.4258C277.328 20.5503 279.825 16.745 283.035 16.745C285.652 16.745 287.554 19.1233 287.554 23.2259C287.554 24.8313 287.316 25.4853 286.781 25.9015C286.425 26.1988 285.116 26.4961 283.035 26.615C282.144 26.6745 281.133 26.7339 279.944 26.7339C277.446 26.7339 277.328 26.4961 277.328 25.4853V25.4258ZM290.468 22.4529C290.468 26.9123 293.263 28.7555 296.057 30.4203C298.792 32.0851 301.587 33.631 301.587 37.4364C301.587 40.2309 299.803 42.193 297.009 42.193C294.809 42.193 293.441 40.4687 292.609 38.0309C291.657 35.177 291.776 34.5824 291.182 34.5824C290.706 34.5824 290.528 35.058 290.528 38.0904C290.528 39.5768 290.587 40.5876 290.647 41.3011C290.765 42.5497 291.003 42.7876 291.36 42.9065C291.717 43.0254 292.074 43.0849 292.49 43.2038C293.322 43.4416 294.392 43.62 296.057 43.62C301.408 43.62 304.916 40.4687 304.916 35.1175C304.916 30.9554 302.063 28.8149 299.209 27.0312C296.295 25.188 293.441 23.7016 293.441 20.8476C293.441 18.5287 295.344 16.745 297.9 16.745C299.744 16.745 300.636 17.9341 301.29 19.5395C302.181 21.7989 302.181 22.6908 302.776 22.6908C303.192 22.6908 303.311 22.2151 303.371 21.2638V19.599C303.371 18.5882 303.371 17.8152 303.311 17.2801C303.252 16.6855 303.192 16.3882 303.014 16.2693C302.003 15.6153 300.457 15.318 298.554 15.318C294.749 15.318 290.468 17.2801 290.468 22.3935V22.4529Z" fill="#008000"/>
</svg>
